Simulation
nRows=24
nColumns=15
endheader
time  TH_x TH_y TH_z SC_y  SC_z  SC_x  AC_y  AC_z  AC_x  GH_y  GH_z  GH_yy  EL_x  PS_y
0.75  0.000000  0.000000  0.000000  -42.4884652491044  9.123892648192058  3.922004253835679  52.30149488941122  19.374930312356025  14.774565725372447  47.60430469554003  48.925073392646645  -63.03321523205739  62.3914590365724  120.000000
0.76  0.000000  0.000000  0.000000  -42.57946885535016  9.340652192167125  4.413789235668858  52.470018155815666  19.224068232484875  14.881044914441963  47.66044822411238  49.55682752712033  -63.31175092660205  60.50536289838101  120.000000
0.77  0.000000  0.000000  0.000000  -42.66944943381439  9.553418337108141  4.891060907103206  52.63586686687903  19.06506346242931  14.985745369260554  47.70579880020892  50.17869956717151  -63.55900682589122  58.613680901023955  120.000000
0.78  0.000000  0.000000  0.000000  -42.757331680209354  9.761196972098803  5.352967312337664  52.7982181414456  18.899078551528977  15.087423879579791  47.74133312859039  50.79071450328289  -63.77635886549682  56.71948424916645  120.000000
0.79  0.000000  0.000000  0.000000  -42.84202821195348  9.962854226290482  5.7988258701258975  52.95649987168221  18.72717767195989  15.184878923329386  47.768306043657645  51.39299230681989  -63.965624181140875  54.826179904141114  120.000000
0.8  0.000000  0.000000  0.000000  -42.922458575681205  10.157046104910684  6.2280315455100075  53.110502306100976  18.55041505565059  15.276901930403367  47.78812621301701  51.985739023004925  -64.12900807773369  52.9376417005986  120.000000
0.81  0.000000  0.000000  0.000000  -42.99763180472703  10.34260409412425  6.640022633882775  53.26022274012026  18.369847381487045  15.362312390435855  47.80207312790914  52.569065512246894  -64.26861576554606  51.057916037658075  120.000000
0.8200000000000001  0.000000  0.000000  0.000000  -43.06660076943553  10.518646014114575  7.0342925498951185  53.40561008976606  18.186459166084692  15.440114454589454  47.81125106990674  53.14282366539348  -64.38625124817852  49.19108452531127  120.000000
0.8300000000000001  0.000000  0.000000  0.000000  -43.12847441202655  10.684516328520978  7.410369504403332  53.546471048389776  18.001048103452895  15.509615964723315  47.816657138965816  53.70662807373258  -64.48347968255382  47.341253698225486  120.000000
0.84  0.000000  0.000000  0.000000  -43.18248007355747  10.83978865219479  7.767813252420008  53.68252569220409  17.814251249836452  15.570361086414962  47.81916557005165  54.259886169361216  -64.56167936069608  45.51256662317643  120.000000
0.85  0.000000  0.000000  0.000000  -43.22800549902334  10.984276807296496  8.106194472368237  53.81344418332957  17.62660155873351  15.6220339081359  47.81952587158651  54.801851579216894  -64.62205620955925  43.709241432678965  120.000000
0.86  0.000000  0.000000  0.000000  -43.264590100297696  11.118011269626448  8.42510482994448  53.93883907102871  17.43855992979321  15.664479282088315  47.81836839179716  55.33161488830794  -64.6656605115571  41.93553290256884  120.000000
0.87  0.000000  0.000000  0.000000  -43.291872711442025  11.241196025385806  8.724160382677631  54.05824983755424  17.250527614987856  15.697699369289978  47.81620130762378  55.84813562501292  -64.69342710639668  40.19567548912771  120.000000
0.88  0.000000  0.000000  0.000000  -43.309566595764835  11.354146280980297  9.003019411701572  54.17117729310074  17.062879052140833  15.721818078553426  47.81337638143221  56.350256011335176  -64.70619189725589  38.49385539461038  120.000000
0.89  0.000000  0.000000  0.000000  -43.31743992459429  11.457234650874318  9.261387245516525  54.27709186442807  16.87597005834793  15.737053436642777  47.81009603961589  56.83674774644835  -64.7047160905887  36.83416198179207  120.000000
0.9  0.000000  0.000000  0.000000  -43.31529627382939  11.550863360200003  9.499039938991036  54.375446156048525  16.69015504716288  15.743709292670085  47.80641198030168  57.306321186866306  -64.68967826560716  35.220529652326924  120.000000
0.91  0.000000  0.000000  0.000000  -43.30302790593885  11.635433284535104  9.715828429915412  54.46573671888315  16.50581165544452  15.742095294219757  47.80223939445368  57.757714376730895  -64.66172201490552  33.65667833500352  120.000000
0.92  0.000000  0.000000  0.000000  -43.28066763049571  11.711306923316407  9.911690319108807  54.547567684750796  16.3233635809644  15.732477589523011  47.7973566751446  58.18975490120339  -64.62147574195353  32.14601433061547  120.000000
0.93  0.000000  0.000000  0.000000  -43.24828108743084  11.77884406766153  10.086645012915628  54.62059381652916  16.143269619132976  15.71510312696707  47.79142908626017  58.60137300197042  -64.56953464502435  30.691506750120446  120.000000
0.9400000000000001  0.000000  0.000000  0.000000  -43.20595507121931  11.838386355091359  10.240814764631812  54.684497374158084  15.965970834837892  15.690289360136205  47.78407658356509  58.9916070562733  -64.50644849961603  29.295536639105567  120.000000
0.9500000000000001  0.000000  0.000000  0.000000  -43.15385192407777  11.890256083432439  10.37441838414911  54.73901828143015  15.79186519844145  15.658403192610216  47.77493673014074  59.35968309752686  -64.43276342958714  27.9598115697366  120.000000
0.96  0.000000  0.000000  0.000000  -43.092248025761506  11.934794163309586  10.487772333715906  54.78401551166652  15.621341818313816  15.619788854038712  47.763678467771115  59.70504882315585  -64.34902103640981  26.685321229455603  120.000000
0.97  0.000000  0.000000  0.000000  -43.02159556330253  11.972299728836742  10.581270982250542  54.81945369401738  15.454727557683345  15.574794964041692  47.75007402392003  60.0274073375607  -64.25577650098508  25.47240092624269  120.000000
0.98  0.000000  0.000000  0.000000  -42.94250796338466  12.003026936323824  10.655399964692785  54.84532865882049  15.292240345251697  15.52389613004923  47.734046845712975  60.32665344029312  -64.15356365202801  24.320749074954332  120.000000
